<?xml version="1.0" encoding="utf-8"?>
<svg viewBox="192.7272 338.5944 427.8151 83.3347" xmlns="http://www.w3.org/2000/svg">
  <defs>
    <radialGradient id="radial-gradient" cx="386.01" cy="374.98" r="345.67" gradientUnits="userSpaceOnUse">
      <stop offset="0.9" stop-color="#162137"/>
      <stop offset="0.94" stop-color="#182339"/>
      <stop offset="0.96" stop-color="#1f2940"/>
      <stop offset="0.97" stop-color="#2a354b"/>
      <stop offset="0.98" stop-color="#3b455c"/>
      <stop offset="0.99" stop-color="#515a71"/>
      <stop offset="0.99" stop-color="#6d758c"/>
      <stop offset="1" stop-color="#8c93ab"/>
      <stop offset="1" stop-color="#939ab2"/>
    </radialGradient>
    <linearGradient id="linear-gradient" x1="95.26" y1="523.22" x2="426.85" y2="523.22" gradientUnits="userSpaceOnUse">
      <stop offset="0.06" stop-color="#20254d"/>
      <stop offset="0.61" stop-color="#a0a9ce"/>
      <stop offset="0.93" stop-color="#4b4d89"/>
    </linearGradient>
    <linearGradient id="linear-gradient-2" x1="470.1" y1="429.51" x2="371.65" y2="733.71" gradientUnits="userSpaceOnUse">
      <stop offset="0.04" stop-color="#381f5f"/>
      <stop offset="0.88" stop-color="#96489b"/>
    </linearGradient>
    <linearGradient id="linear-gradient-3" x1="602.72" y1="340.4" x2="690.19" y2="566.71" gradientUnits="userSpaceOnUse">
      <stop offset="0.1" stop-color="#7c2d89"/>
      <stop offset="0.48" stop-color="#f8b27f"/>
    </linearGradient>
    <linearGradient id="linear-gradient-4" x1="491.44" y1="429.32" x2="394.95" y2="727.45" gradientUnits="userSpaceOnUse">
      <stop offset="0.04" stop-color="#b85a7d"/>
      <stop offset="0.34" stop-color="#e79a7d"/>
      <stop offset="0.67" stop-color="#f3ae80"/>
      <stop offset="0.97" stop-color="#7e399d"/>
    </linearGradient>
    <linearGradient id="linear-gradient-5" x1="556.21" y1="373.78" x2="577.32" y2="701.63" gradientUnits="userSpaceOnUse">
      <stop offset="0.06" stop-color="#a8527e"/>
      <stop offset="0.2" stop-color="#fec484"/>
      <stop offset="0.94" stop-color="#e88e6e"/>
    </linearGradient>
    <linearGradient id="linear-gradient-6" x1="622.62" y1="348.65" x2="643.31" y2="562.65" gradientUnits="userSpaceOnUse">
      <stop offset="0.17" stop-color="#3f1c67"/>
      <stop offset="0.46" stop-color="#ba5d7b"/>
      <stop offset="0.88" stop-color="#f5b16a"/>
    </linearGradient>
    <linearGradient id="linear-gradient-7" x1="20.61" y1="506.57" x2="756.59" y2="382.79" gradientUnits="userSpaceOnUse">
      <stop offset="0.14" stop-color="#703294"/>
      <stop offset="0.51" stop-color="#f59c70"/>
      <stop offset="0.91" stop-color="#fdecd1"/>
    </linearGradient>
    <linearGradient id="linear-gradient-8" x1="183.12" y1="678.54" x2="495.89" y2="463.01" gradientUnits="userSpaceOnUse">
      <stop offset="0" stop-color="#272b58"/>
      <stop offset="0.59" stop-color="#545a97"/>
      <stop offset="0.98" stop-color="#161f3b"/>
    </linearGradient>
    <linearGradient id="linear-gradient-9" x1="205.93" y1="409.92" x2="69.48" y2="165.8" gradientUnits="userSpaceOnUse">
      <stop offset="0.1" stop-color="#351c58"/>
      <stop offset="0.6" stop-color="#78388f"/>
      <stop offset="0.7" stop-color="#87428a"/>
      <stop offset="0.89" stop-color="#af5d7b"/>
      <stop offset="1" stop-color="#c96f72"/>
    </linearGradient>
    <linearGradient id="linear-gradient-10" x1="195.62" y1="409.94" x2="98.16" y2="285.18" gradientUnits="userSpaceOnUse">
      <stop offset="0.19" stop-color="#362757"/>
      <stop offset="0.25" stop-color="#3e3062"/>
      <stop offset="0.48" stop-color="#5d528d"/>
      <stop offset="0.7" stop-color="#746aad"/>
      <stop offset="0.88" stop-color="#827ac0"/>
      <stop offset="1" stop-color="#877fc7"/>
    </linearGradient>
    <linearGradient id="linear-gradient-11" x1="205.4" y1="427.91" x2="53.4" y2="268.72" gradientUnits="userSpaceOnUse">
      <stop offset="0.22" stop-color="#121d31"/>
      <stop offset="0.36" stop-color="#1f2941"/>
      <stop offset="0.64" stop-color="#3f476c"/>
      <stop offset="1" stop-color="#7074ac"/>
    </linearGradient>
    <linearGradient id="linear-gradient-12" x1="-7.75" y1="400.24" x2="736.88" y2="239" gradientUnits="userSpaceOnUse">
      <stop offset="0" stop-color="#5f5f9a"/>
      <stop offset="0.73" stop-color="#c1c9e5"/>
      <stop offset="0.98" stop-color="#6668a1"/>
    </linearGradient>
    <linearGradient id="linear-gradient-13" x1="431.44" y1="242.65" x2="702.66" y2="231.32" gradientUnits="userSpaceOnUse">
      <stop offset="0" stop-color="#2f366d"/>
      <stop offset="0.59" stop-color="#7880b1"/>
      <stop offset="0.67" stop-color="#727aac"/>
      <stop offset="0.77" stop-color="#626a9d"/>
      <stop offset="0.88" stop-color="#485085"/>
      <stop offset="0.97" stop-color="#2f366d"/>
    </linearGradient>
    <linearGradient id="linear-gradient-14" x1="284.83" y1="397.97" x2="172.16" y2="41.5" gradientUnits="userSpaceOnUse">
      <stop offset="0" stop-color="#75368a"/>
      <stop offset="0.09" stop-color="#864385"/>
      <stop offset="0.26" stop-color="#b36479"/>
      <stop offset="0.44" stop-color="#ea8d6a"/>
      <stop offset="0.61" stop-color="#ea8f6c"/>
      <stop offset="0.68" stop-color="#ea9573"/>
      <stop offset="0.73" stop-color="#eaa07f"/>
      <stop offset="0.77" stop-color="#ebaf91"/>
      <stop offset="0.81" stop-color="#ebc3a8"/>
      <stop offset="0.84" stop-color="#ecdbc3"/>
      <stop offset="0.86" stop-color="#ecebd6"/>
    </linearGradient>
    <linearGradient id="linear-gradient-15" x1="222.16" y1="311.42" x2="411.46" y2="13.46" gradientUnits="userSpaceOnUse">
      <stop offset="0" stop-color="#a9558b"/>
      <stop offset="0.04" stop-color="#b66186"/>
      <stop offset="0.15" stop-color="#cf797b"/>
      <stop offset="0.26" stop-color="#e18a73"/>
      <stop offset="0.38" stop-color="#ec946e"/>
      <stop offset="0.52" stop-color="#ef976d"/>
      <stop offset="0.61" stop-color="#f1a47e"/>
      <stop offset="0.8" stop-color="#f6c6aa"/>
      <stop offset="1" stop-color="#fdf0e0"/>
    </linearGradient>
    <linearGradient id="linear-gradient-16" x1="234.28" y1="259.36" x2="447.68" y2="42.25" gradientUnits="userSpaceOnUse">
      <stop offset="0.16" stop-color="#421c64"/>
      <stop offset="0.31" stop-color="#663b68"/>
      <stop offset="0.64" stop-color="#c08b73"/>
      <stop offset="0.85" stop-color="#fcc07a"/>
    </linearGradient>
    <linearGradient id="linear-gradient-17" x1="262.78" y1="324.61" x2="561.12" y2="77.37" gradientUnits="userSpaceOnUse">
      <stop offset="0.08" stop-color="#151f37"/>
      <stop offset="0.18" stop-color="#1d2643"/>
      <stop offset="0.35" stop-color="#323a64"/>
      <stop offset="0.49" stop-color="#454c82"/>
      <stop offset="0.55" stop-color="#535a8d"/>
      <stop offset="0.66" stop-color="#787fa9"/>
      <stop offset="0.81" stop-color="#b4bbd6"/>
      <stop offset="0.83" stop-color="#bfc6df"/>
    </linearGradient>
    <linearGradient id="linear-gradient-18" x1="327.93" y1="279.64" x2="652.31" y2="161.26" gradientUnits="userSpaceOnUse">
      <stop offset="0" stop-color="#121e32"/>
      <stop offset="0.17" stop-color="#1d2845"/>
      <stop offset="0.5" stop-color="#313966"/>
      <stop offset="0.62" stop-color="#293259"/>
      <stop offset="0.99" stop-color="#121e32"/>
    </linearGradient>
    <linearGradient id="linear-gradient-19" x1="312.22" y1="288.03" x2="638.51" y2="135.93" gradientUnits="userSpaceOnUse">
      <stop offset="0" stop-color="#414380"/>
      <stop offset="0.03" stop-color="#474a85"/>
      <stop offset="0.36" stop-color="#989ec3"/>
      <stop offset="0.51" stop-color="#b8bfdc"/>
      <stop offset="0.59" stop-color="#b4bbd8"/>
      <stop offset="0.67" stop-color="#a7aecc"/>
      <stop offset="0.75" stop-color="#929ab8"/>
      <stop offset="0.84" stop-color="#757d9c"/>
      <stop offset="0.92" stop-color="#505878"/>
      <stop offset="1" stop-color="#262f50"/>
    </linearGradient>
    <style>.cls-1{fill:url(#radial-gradient);}.cls-2{fill:url(#linear-gradient);}.cls-3{fill:url(#linear-gradient-2);}.cls-4{fill:url(#linear-gradient-3);}.cls-5{fill:url(#linear-gradient-4);}.cls-6{fill:url(#linear-gradient-5);}.cls-7{fill:url(#linear-gradient-6);}.cls-8{fill:url(#linear-gradient-7);}.cls-9{fill:url(#linear-gradient-8);}.cls-10{fill:#323665;}.cls-11{fill:url(#linear-gradient-9);}.cls-12{fill:url(#linear-gradient-10);}.cls-13{fill:url(#linear-gradient-11);}.cls-14{fill:url(#linear-gradient-12);}.cls-15{fill:url(#linear-gradient-13);}.cls-16{fill:url(#linear-gradient-14);}.cls-17{fill:url(#linear-gradient-15);}.cls-18{fill:url(#linear-gradient-16);}.cls-19{fill:url(#linear-gradient-17);}.cls-20{fill:url(#linear-gradient-18);}.cls-21{fill:url(#linear-gradient-19);}</style>
  </defs>
  <g id="Layer_2" data-name="Layer 2" style="" transform="matrix(0.11870999634265898, 0, 0, 0.11870999634265898, 187.9408416748047, 335.11260986328125)">
    <path class="cls-1" d="M731.69,375a347.08,347.08,0,0,1-4.39,55.16v0c-.22,1.41-.46,2.82-.7,4.22a.37.37,0,0,1,0,.11,337.94,337.94,0,0,1-10.12,42.21h0q-1.2,3.93-2.51,7.81v0c-.1.32-.21.66-.32,1l0,.1a344.16,344.16,0,0,1-43.31,86c-.35.52-.72,1.05-1.08,1.57l-.23.33L667.21,576a340.17,340.17,0,0,1-21.44,27s0,0,0,0q-3.69,4.2-7.53,8.28h0a346.48,346.48,0,0,1-83.29,65.25l0,0a340.56,340.56,0,0,1-46.79,21.81A344.73,344.73,0,0,1,386,720.63l-3.52,0a345.58,345.58,0,0,1-99-15.42h0C163.81,668.07,72,567.69,47,443.13a343.59,343.59,0,0,1-5.14-35Q40.33,391.78,40.32,375a347.15,347.15,0,0,1,5.09-59.4v0q2.15-12.36,5.15-24.42,3.13-12.58,7.19-24.8a342.2,342.2,0,0,1,19.11-46.19c.87-1.75,1.77-3.48,2.67-5.21h0q1.58-3,3.22-6,4-7.26,8.31-14.31a345.09,345.09,0,0,1,29.52-41.08l.1-.12q7.56-9,15.7-17.54h0A346.47,346.47,0,0,1,223,70.13a342.79,342.79,0,0,1,53.21-23h0A345.34,345.34,0,0,1,386,29.33q5.44,0,10.85.17A343.9,343.9,0,0,1,585,92.34h0a348.43,348.43,0,0,1,36.76,29.88h0a347.53,347.53,0,0,1,33.43,35.93s0,0,0,0c2.64,3.29,5.22,6.61,7.75,10h0q3.16,4.22,6.18,8.54,5.1,7.24,9.82,14.78h0q8.82,14,16.29,28.95s0,0,0,0q7.59,15.15,13.7,31.12h0a343.9,343.9,0,0,1,22.33,108.3Q731.69,367.42,731.69,375Z"/>
    <path class="cls-2" d="M426.85,447.34s-23.62,15.22-44,35.26-60,67.67-127,84.25C181.91,585.77,95.26,562,95.26,562s34.67,33.41,109.67,36.87c82,3.77,147.92-44,178.76-75.67C423.83,482,426.85,447.34,426.85,447.34Z"/>
    <path class="cls-3" d="M416.84,681.75c-60.5,27.48-133.32,23.43-133.32,23.43S363.59,692.61,419,644.47s95.86-123.76,85.1-204C566,594,477.34,654.27,416.84,681.75Z"/>
    <path class="cls-4" d="M714.63,481.58c0,.1,0,.2-.07.3s0,.24-.08.36-.09.39-.14.57-.14.58-.21.87l-.06.21c0,.13-.06.25-.09.35s0,.11,0,.16l-.08.27,0,.14v0h0l-.18.68,0,.1a344.16,344.16,0,0,1-43.31,86c0,.1-.1.2-.15.3-.35.47-.65.9-.93,1.27l-.23.33-1.42,1.9c26.06-60.45,23.72-138.69-15-177.69l-.15-.15a82.19,82.19,0,0,0-13.55-10.89l-1-.67-1.47-.92q-2.4-1.44-4.86-2.76l-1.09-.56c-39.76-20.59-92.39-16-93.66-15.89h0l.51-.19c47.3-18.75,83.27-18.82,110.15-9.12l.13.05h0a97.42,97.42,0,0,1,37,24l.08.08.06.07c12.8,13.22,21.31,29,26.44,43.82C717.41,442.93,719,462.79,714.63,481.58Z"/>
    <path class="cls-5" d="M496.29,683c-32,24.41-73.44,35.72-113.8,37.58a345.58,345.58,0,0,1-99-15.42h0s72.83,4.05,133.32-23.43S566,594,504.06,440.51c0,0,41.65,36.64,51.88,86.48S557.21,636.59,496.29,683Z"/>
    <path class="cls-6" d="M585.22,651.82a179.34,179.34,0,0,1-30.29,24.78l0,0a340.56,340.56,0,0,1-46.79,21.81c79.84-57.83,102.59-133.65,79.58-198.6s-77.18-100.19-77.18-100.19L545,384.74C689.92,491.31,626.8,613.51,585.22,651.82Z"/>
    <path class="cls-7" d="M690.45,504.63c-3.31,28.54-11.35,50.59-20.16,67,0,.1-.1.2-.15.3-.35.47-.65.9-.93,1.27l-.23.33L667.21,576a340.17,340.17,0,0,1-21.44,27s0,0,0,0q-3.69,4.2-7.53,8.28c22.15-64.32,24.44-100.22,4.41-148.78s-72.35-83.51-72.35-83.51c21.78-8.31,42.33-6.2,60.1,2.77l1.09.56q2.46,1.29,4.86,2.76l1.47.92,1,.67a96.07,96.07,0,0,1,13.55,10.89l.15.15C679.12,423.43,694.68,465.72,690.45,504.63Z"/>
    <path class="cls-8" d="M727.3,430.14v0c-.22,1.41-.46,2.82-.7,4.22a.37.37,0,0,1,0,.11,337.94,337.94,0,0,1-10.12,42.21h0q-1.2,3.93-2.51,7.81v0c0,.09-.08.18-.13.27,0-.16.31-1.05.66-2.57,2.5-11,9.47-55.33-27.48-98.74-.8-.94-1.61-1.86-2.43-2.75l-.08-.08a88.66,88.66,0,0,0-37-24l-.13-.05c-34.56-11.78-75.82-4.17-110.15,9.12l-.5.2h0c-7.3,2.84-14.28,5.93-20.81,9.15-50.47,24.86-122.17,75.28-128.11,80.24S328.13,500.17,310,514.64s-86.66,59.63-174,29.2c-59-20.57-80.75-67.16-89-100.71a343.59,343.59,0,0,1-5.14-35c.55,1.16,36.4,74.9,123.49,86.87,87.77,12.07,155.69-37.54,197-65s138.68-96.24,222.92-106.26C652.14,316.88,726.56,360.45,727.3,430.14Z"/>
    <path class="cls-9" d="M144,621.81s24.65,22.39,69.25,35.89c32.77,9.91,67.73,9.24,100.55-.48,88.24-26.12,172.22-107.45,169.56-212.35l-15.9-1.24s-7.42,69.28-69.77,127.43S232,650.6,144,621.81Z"/>
    <path class="cls-10" d="M451.72,429.77S444.55,485,410.4,527s-85.28,84.59-172.21,88.33S105.9,580.57,95.26,562c0,0,31.57,24.81,88.75,33.28,61,9,128.91-8,188.29-62.6,48.06-47,54.55-85.36,54.55-85.36Z"/>
    <path class="cls-11" d="M218.69,400h-.1l-.17.05-.26.07-.25.08a136,136,0,0,1-33,4.46c-7.77.05-20.56-2.12-34.14-6.33l0,0C131.63,392.41,111,382.47,100.62,369l-.52-.69,0,0a107.76,107.76,0,0,1-6.64-10s0,0,0,0C78,332.11,63.74,288.74,65.24,264.75c.74-12,5.16-27.22,11-42v0c1-2.63,2.14-5.25,3.26-7.83h0q1.58-3,3.22-6,4-7.26,8.31-14.31a345.09,345.09,0,0,1,29.52-41.08l.1-.12q7.56-9,15.7-17.54h0c.52,0-16.57,39.83-19.83,65.24-4.08,31.73-3.53,70.52,14.1,105.22S184.34,381.07,218.69,400Z"/>
    <path class="cls-12" d="M218.66,400h-.06l-.17.05-.26.07-.25.08c-4.79,1.41-30.49,8.66-44.92,6.31-4.73-.77-12.92-3.89-22.26-8.18l0,0c-18.25-8.4-40.87-21.3-50.6-30l0,0a19.48,19.48,0,0,1-4.28-4.86c-.66-1.24-1.46-3-2.36-5.17l0,0C86.31,341,73,297.88,71.31,284c-1.85-15.59-.43-31,3.34-52.88.48-2.76,1-5.58,1.63-8.38v0c.19-.88.39-1.75.59-2.62.87-1.75,1.77-3.48,2.67-5.21,0,0,0,0,0,0q1.58-3,3.22-6,4-7.26,8.31-14.31c-6,19.81-15.42,59.08-9.38,95.38,8.54,51.21,43.61,85.17,63.47,95.75S198.11,402.51,218.66,400Z"/>
    <path class="cls-13" d="M218.7,400l-1.48,17.35-.33,3.85s-70.61,22.46-119.23-16.88C54.17,369.1,49.49,312.14,50.57,291.13q3.13-12.58,7.19-24.8a342.2,342.2,0,0,1,19.11-46.19c.87-1.75,1.77-3.48,2.67-5.21,0,0,0,0,0,0q1.58-3,3.22-6c-3.56,11.82-7.08,29.75-7.25,54.59C75.15,319.39,113,416.35,218.6,400h.1Z"/>
    <path class="cls-14" d="M731.37,359.92c-4.92-11.46-16.63-34.36-37.17-50.89-28.46-22.89-71.88-39.09-134.6-26.35s-153.15,74.84-176.66,88.95-71.5,45.65-136.82,67.91-133.86.87-167.51-34c-26.11-27.07-33.9-59-33.19-89.95v0q2.14-12.36,5.15-24.42,3.13-12.58,7.19-24.8C56.33,275,54.24,290,54.24,303.46c0,20.41,9.46,69.28,58.64,99.9,31.23,19.45,71.66,19.86,104.34,14,18.78-3.4,35-8.88,45.47-14C308,382.51,433.41,303.59,470.53,279.09s106.08-55.92,161-46.08c45.28,8.1,72.28,30.24,91.7,65.62A345.28,345.28,0,0,1,731.37,359.92Z"/>
    <path class="cls-15" d="M709,251.61c-11.59-10-43-33.66-86.47-38.71-63.54-9.77-136.52,30.13-218.44,88,0,0,27.06-53.26,103.26-96.81,68.06-38.45,147.39-33.73,187.94,16.35,0,0,0,0,0,0Q702.93,235.64,709,251.61Z"/>
    <path class="cls-16" d="M279.7,376.27S255,388,242.81,390.1c0,0-47.67-22.43-78.1-71.29-31-49.76-41.08-106.27-15.34-165.16C165,117.84,193.84,88.94,223,70.13a342.79,342.79,0,0,1,53.21-23c-.86.66-44.19,33.54-70.4,72.86-22.84,34.27-42.88,87.4-15.71,155.14C216.05,339.9,279.7,376.27,279.7,376.27Z"/>
    <path class="cls-17" d="M501.38,49.05c-8.39.66-29.15,1.63-36.41,2.85-17-2.33-50.82-3.73-93.42,11C309.45,84.26,270.66,129,258,166.77c-12.13,36.12-14.77,79.72,15.37,140.55h0a210.63,210.63,0,0,0,2.18,21.5c-81.77-75.49-78.06-185.26-17.38-243.89C301.8,42.78,353.41,30.08,396.86,29.5A344.54,344.54,0,0,1,501.38,49.05Z"/>
    <path class="cls-18" d="M465,51.89a211.51,211.51,0,0,0-30.08,7.49c-34.39,11.13-89.31,37.24-132,109.24-29.71,50.12-31.31,108.08-29.53,138.69-30.14-60.83-27.5-104.43-15.37-140.55C270.66,129,309.45,84.25,371.55,62.84,414.15,48.16,447.94,49.56,465,51.89Z"/>
    <path class="cls-19" d="M621.82,122.22C587,108.91,498.53,92.29,415,153c-103.91,75.54-98,190.64-98,190.64H298.45c-8-55.36,3.71-97.12,15.95-125.32S372.27,113.64,465,85.67c50.42-15.21,91-6.78,120.08,6.66h0A348.43,348.43,0,0,1,621.82,122.22Z"/>
    <path class="cls-20" d="M679,191.51c-17.6-12-43.25-25.37-72.68-27.47-55.42-4-120.49,21.52-169.73,67.12S381.7,319.3,381.7,319.3l-29.11,15.45-7,3.72s0-96.25,75.71-149.19,178-58.25,223.18-32.91A197.59,197.59,0,0,1,663,168.18h0q3.16,4.22,6.18,8.54Q674.32,184,679,191.51Z"/>
    <path class="cls-21" d="M669.22,176.73C649.57,162,613.1,144.33,554.9,149.44c-94,8.26-185.94,94.33-200.09,180.39a10.47,10.47,0,0,1-4.85,7.22c-4.87,3-12.71,7.87-16.16,10.36,0,0-5.78-73.94,52.57-141.31,56.81-65.58,177.36-116.36,268.89-47.94t0,0c2.64,3.29,5.22,6.61,7.75,10h0Q666.21,172.41,669.22,176.73Z"/>
  </g>
</svg>